<?xml version="1.0" encoding="UTF-8" standalone="no"?>
<!-- Created with Inkscape (http://www.inkscape.org/) -->

<svg
   width="51.858334mm"
   height="29.397852mm"
   viewBox="0 0 51.858334 29.397852"
   version="1.1"
   id="svg1"
   xmlns="http://www.w3.org/2000/svg"
   xmlns:svg="http://www.w3.org/2000/svg">
  <defs
     id="defs1" />
  <g
     id="layer1"
     transform="translate(-78.581247,-133.87916)">
    <g
       id="g45"
       transform="matrix(0.26458333,0,0,0.26458333,7.408333,46.976771)">
      <path
         class="cls-4"
         d="M 457,328.45 H 297.06 v 16.01 h 26.6 v 17.7 H 269 v 16.01 h 54.66 v 14.69 h -41.23 v 16.01 h 41.23 v 30.69 H 465 v -111.1 h -8 z m -106.8,16.01 h 98.79 v 17.7 H 339.66 v -17.7 h 10.53 z m -10.53,79.08 V 378.16 H 449 v 45.38 z"
         id="path43"
         style="fill:#ffffff;stroke-width:0px" />
      <circle
         class="cls-4"
         cx="347.97"
         cy="353.31"
         r="4.1999998"
         id="circle43"
         style="fill:#ffffff;stroke-width:0px" />
      <path
         class="cls-4"
         d="m 374.29,357.5 c 2.32,0 4.2,-1.88 4.2,-4.2 0,-2.32 -1.88,-4.2 -4.2,-4.2 -2.32,0 -4.2,1.88 -4.2,4.2 0,2.32 1.88,4.2 4.2,4.2 z"
         id="path44"
         style="fill:#ffffff;stroke-width:0px" />
      <circle
         class="cls-4"
         cx="361.13"
         cy="353.31"
         r="4.1999998"
         id="circle44"
         style="fill:#ffffff;stroke-width:0px" />
      <rect
         class="cls-4"
         x="269"
         y="328.45001"
         width="13.43"
         height="16.01"
         id="rect44"
         style="fill:#ffffff;stroke-width:0px" />
      <rect
         class="cls-4"
         x="269"
         y="423.54001"
         width="44.130001"
         height="16.01"
         id="rect45"
         style="fill:#ffffff;stroke-width:0px" />
    </g>
  </g>
</svg>
